<svg xmlns="http://www.w3.org/2000/svg" width="222.304" height="417" viewBox="0 0 222.304 417">
  <g id="Union_1" data-name="Union 1" transform="translate(1250.913 409)" fill="#100000">
    <path d="M -1071.587768554688 7.500138759613037 L -1207.910766601563 7.500138759613037 C -1213.1083984375 7.500138759613037 -1218.150146484375 6.482086181640625 -1222.896240234375 4.474244117736816 C -1227.479125976563 2.53624415397644 -1231.596557617188 -0.239597961306572 -1235.134155273438 -3.776282072067261 C -1238.670776367188 -7.313808441162109 -1241.446533203125 -11.43117713928223 -1243.384399414063 -16.01401901245117 C -1245.392333984375 -20.76080894470215 -1246.410400390625 -25.80270385742188 -1246.410400390625 -30.99959754943848 L -1246.410400390625 -225.0996551513672 L -1246.410400390625 -225.4950256347656 L -1246.795043945313 -225.586181640625 C -1248.732055664063 -226.0452270507813 -1250.109375 -227.8176574707031 -1250.14453125 -229.8963928222656 L -1250.412841796875 -245.8937530517578 C -1250.430908203125 -246.9815521240234 -1250.072143554688 -248.0383911132813 -1249.402587890625 -248.8694915771484 C -1248.743286132813 -249.6879119873047 -1247.82763671875 -250.2352752685547 -1246.82421875 -250.4108123779297 L -1246.410400390625 -250.4832305908203 L -1246.410400390625 -250.9033355712891 L -1246.410400390625 -259.1039123535156 L -1246.410400390625 -259.4977416992188 L -1246.793334960938 -259.5900268554688 C -1248.722045898438 -260.0545959472656 -1250.093017578125 -261.825439453125 -1250.12744140625 -263.8963928222656 L -1250.412841796875 -280.8938598632813 C -1250.430908203125 -281.9816589355469 -1250.072143554688 -283.0384826660156 -1249.402587890625 -283.8695983886719 C -1248.743286132813 -284.6880187988281 -1247.82763671875 -285.2353820800781 -1246.82421875 -285.4109191894531 L -1246.410400390625 -285.4833374023438 L -1246.410400390625 -285.9034423828125 L -1246.410400390625 -304.0266418457031 L -1246.410400390625 -304.4743957519531 L -1246.85546875 -304.5235900878906 C -1248.793090820313 -304.7378540039063 -1250.254272460938 -306.3723449707031 -1250.254272460938 -308.3255920410156 L -1250.254272460938 -317.6756896972656 C -1250.254272460938 -319.6285400390625 -1248.793090820313 -321.2626647949219 -1246.85546875 -321.4767150878906 L -1246.410400390625 -321.5259094238281 L -1246.410400390625 -321.9736938476563 L -1246.410400390625 -369.9999084472656 C -1246.410400390625 -375.1974487304688 -1245.392333984375 -380.2395935058594 -1243.384521484375 -384.986328125 C -1241.4462890625 -389.5697631835938 -1238.670532226563 -393.6867980957031 -1235.134155273438 -397.2232971191406 C -1231.5986328125 -400.7586364746094 -1227.481201171875 -403.5348510742188 -1222.896240234375 -405.4746398925781 C -1218.151733398438 -407.4818725585938 -1213.10986328125 -408.4996032714844 -1207.910766601563 -408.4996032714844 L -1071.587768554688 -408.4996032714844 C -1066.388061523438 -408.4996032714844 -1061.345947265625 -407.4818725585938 -1056.601318359375 -405.4746398925781 C -1052.014770507813 -403.5341796875 -1047.897338867188 -400.7580261230469 -1044.363525390625 -397.2232971191406 C -1040.828125 -393.6886901855469 -1038.052001953125 -389.5716552734375 -1036.112060546875 -384.986328125 C -1034.104858398438 -380.2408142089844 -1033.087158203125 -375.1986083984375 -1033.087158203125 -369.9999084472656 L -1033.087158203125 -271.0879516601563 L -1033.087158203125 -270.6601867675781 L -1032.66455078125 -270.5939636230469 C -1030.812744140625 -270.3038635253906 -1029.445068359375 -268.6697998046875 -1029.412475585938 -266.70849609375 L -1029.109985351563 -248.7110748291016 C -1029.074829101563 -246.6024475097656 -1030.620361328125 -244.8203887939453 -1032.62841796875 -244.6541290283203 L -1033.087158203125 -244.6161193847656 L -1033.087158203125 -244.1558074951172 L -1033.087158203125 -30.99959754943848 C -1033.087158203125 -25.80149269104004 -1034.104858398438 -20.75959777832031 -1036.112182617188 -16.01407241821289 C -1038.0517578125 -11.42933464050293 -1040.827880859375 -7.311913967132568 -1044.363525390625 -3.776229619979858 C -1047.901000976563 -0.2396505922079086 -1052.018310546875 2.536191463470459 -1056.601196289063 4.474191665649414 C -1061.347412109375 6.482086181640625 -1066.389526367188 7.500138759613037 -1071.587768554688 7.500138759613037 Z M -1215.455444335938 -398.5007019042969 C -1221.19873046875 -398.5007019042969 -1226.598266601563 -396.2469787597656 -1230.659423828125 -392.1546020507813 C -1234.71923828125 -388.0635375976563 -1236.955078125 -382.6246643066406 -1236.955078125 -376.8399047851563 L -1236.955078125 -239.4261169433594 L -1236.955078125 -24.16138648986816 C -1236.955078125 -18.37607192993164 -1234.71923828125 -12.93686103820801 -1230.659423828125 -8.845755577087402 C -1226.59814453125 -4.754018783569336 -1221.198608398438 -2.500597953796387 -1215.455444335938 -2.500597953796387 L -1064.120483398438 -2.500597953796387 C -1058.376342773438 -2.500597953796387 -1052.976806640625 -4.754018783569336 -1048.91650390625 -8.845755577087402 C -1044.856567382813 -12.93696594238281 -1042.620727539063 -18.37617683410645 -1042.620727539063 -24.16138648986816 L -1042.620727539063 -376.8399047851563 C -1042.620727539063 -382.6245422363281 -1044.856567382813 -388.0634460449219 -1048.91650390625 -392.1546020507813 C -1052.9765625 -396.2469177246094 -1058.376098632813 -398.5007019042969 -1064.120483398438 -398.5007019042969 L -1086.178466796875 -398.5007019042969 L -1086.678466796875 -398.5007019042969 L -1086.678466796875 -398.0007019042969 L -1086.678466796875 -393.3287963867188 C -1086.678466796875 -389.1937561035156 -1090.04296875 -385.82958984375 -1094.178588867188 -385.82958984375 L -1147.802368164063 -385.82958984375 L -1184.410888671875 -385.82958984375 C -1188.54638671875 -385.82958984375 -1191.910888671875 -389.1937561035156 -1191.910888671875 -393.3287963867188 L -1191.910888671875 -398.0007019042969 L -1191.910888671875 -398.5007019042969 L -1192.410888671875 -398.5007019042969 L -1215.455444335938 -398.5007019042969 Z" stroke="none"/>
    <path d="M -1071.587768554688 7.000138759613037 C -1066.456787109375 7.000138759613037 -1061.480224609375 5.995349407196045 -1056.7958984375 4.013665199279785 C -1052.272583007813 2.100875616073608 -1048.208740234375 -0.6390190124511719 -1044.717041015625 -4.12980842590332 C -1041.227172851563 -7.61970329284668 -1038.487060546875 -11.68370342254639 -1036.572631835938 -16.20886039733887 C -1034.591674804688 -20.89244079589844 -1033.587158203125 -25.86875534057617 -1033.587158203125 -30.99959754943848 L -1033.587158203125 -244.1558074951172 L -1033.587158203125 -245.0764465332031 L -1032.669677734375 -245.1523895263672 C -1030.923095703125 -245.2970123291016 -1029.5791015625 -246.8565521240234 -1029.60986328125 -248.7026977539063 L -1029.912353515625 -266.7001647949219 C -1029.94091796875 -268.4177551269531 -1031.130981445313 -269.84765625 -1032.741943359375 -270.1000061035156 L -1033.587158203125 -270.2324523925781 L -1033.587158203125 -271.0879516601563 L -1033.587158203125 -369.9999084472656 C -1033.587158203125 -375.13134765625 -1034.591674804688 -380.1079711914063 -1036.572631835938 -384.79150390625 C -1038.4873046875 -389.3172302246094 -1041.227416992188 -393.380859375 -1044.717041015625 -396.8698120117188 C -1048.205200195313 -400.3587646484375 -1052.269165039063 -403.0989074707031 -1056.796142578125 -405.0141296386719 C -1061.478637695313 -406.9951171875 -1066.455322265625 -407.9996032714844 -1071.587768554688 -407.9996032714844 L -1207.910766601563 -407.9996032714844 C -1213.042602539063 -407.9996032714844 -1218.018920898438 -406.9951171875 -1222.701416015625 -405.0141906738281 C -1227.226806640625 -403.0995483398438 -1231.290893554688 -400.359375 -1234.780517578125 -396.8696899414063 C -1238.271240234375 -393.3790283203125 -1241.010986328125 -389.3153991699219 -1242.923950195313 -384.7915344238281 C -1244.905639648438 -380.1067504882813 -1245.910400390625 -375.130126953125 -1245.910400390625 -369.9999084472656 L -1245.910400390625 -321.9736938476563 L -1245.910400390625 -321.078125 L -1246.800537109375 -320.9797668457031 C -1248.484497070313 -320.793701171875 -1249.754272460938 -319.373291015625 -1249.754272460938 -317.6756896972656 L -1249.754272460938 -308.3255920410156 C -1249.754272460938 -306.6276550292969 -1248.484375 -305.2068176269531 -1246.800537109375 -305.0205993652344 L -1245.910400390625 -304.9221801757813 L -1245.910400390625 -304.0266418457031 L -1245.910400390625 -285.9034423828125 L -1245.910400390625 -285.0631713867188 L -1246.738159179688 -284.9183959960938 C -1247.621948242188 -284.7637939453125 -1248.430053710938 -284.2799072265625 -1249.01318359375 -283.5559692382813 C -1249.609497070313 -282.8157653808594 -1249.928955078125 -281.8732299804688 -1249.912841796875 -280.9022827148438 L -1249.627563476563 -263.9046936035156 C -1249.596923828125 -262.0617065429688 -1248.38330078125 -260.4873352050781 -1246.676147460938 -260.0761108398438 L -1245.910400390625 -259.8916625976563 L -1245.910400390625 -259.1039123535156 L -1245.910400390625 -250.9033355712891 L -1245.910400390625 -250.0630645751953 L -1246.738159179688 -249.9182891845703 C -1247.621948242188 -249.7637023925781 -1248.430053710938 -249.2798156738281 -1249.01318359375 -248.5558624267578 C -1249.609497070313 -247.8156433105469 -1249.928955078125 -246.8731231689453 -1249.912841796875 -245.9021759033203 L -1249.644653320313 -229.9048614501953 C -1249.61328125 -228.0548095703125 -1248.39404296875 -226.4789733886719 -1246.679809570313 -226.0727081298828 L -1245.910400390625 -225.8903350830078 L -1245.910400390625 -225.0996551513672 L -1245.910400390625 -30.99959754943848 C -1245.910400390625 -25.86996650695801 -1244.905639648438 -20.89365005493164 -1242.923950195313 -16.20875549316406 C -1241.01123046875 -11.68554496765137 -1238.271362304688 -7.621545314788818 -1234.780639648438 -4.129913806915283 C -1231.288818359375 -0.6389663815498352 -1227.224731445313 2.10092830657959 -1222.701416015625 4.013770580291748 C -1218.017333984375 5.995349407196045 -1213.041137695313 7.000138759613037 -1207.910766601563 7.000138759613037 L -1071.587768554688 7.000138759613037 M -1215.455444335938 -399.0007019042969 L -1192.410888671875 -399.0007019042969 L -1191.410888671875 -399.0007019042969 L -1191.410888671875 -398.0007019042969 L -1191.410888671875 -393.3287963867188 C -1191.410888671875 -389.4694519042969 -1188.270629882813 -386.32958984375 -1184.410888671875 -386.32958984375 L -1147.802368164063 -386.32958984375 L -1094.178588867188 -386.32958984375 C -1090.318725585938 -386.32958984375 -1087.178466796875 -389.4694519042969 -1087.178466796875 -393.3287963867188 L -1087.178466796875 -398.0007019042969 L -1087.178466796875 -399.0007019042969 L -1086.178466796875 -399.0007019042969 L -1064.120483398438 -399.0007019042969 C -1058.241821289063 -399.0007019042969 -1052.716186523438 -396.6944274902344 -1048.5615234375 -392.5067443847656 C -1044.408081054688 -388.3213195800781 -1042.120727539063 -382.7573852539063 -1042.120727539063 -376.8399047851563 L -1042.120727539063 -24.16138648986816 C -1042.120727539063 -18.24333572387695 -1044.408081054688 -12.6790714263916 -1048.5615234375 -8.493597984313965 C -1052.716430664063 -4.306545257568359 -1058.242065429688 -2.000597953796387 -1064.120483398438 -2.000597953796387 L -1215.455444335938 -2.000597953796387 C -1221.332885742188 -2.000597953796387 -1226.8583984375 -4.306492805480957 -1231.014404296875 -8.493597984313965 C -1235.167724609375 -12.6789665222168 -1237.455078125 -18.24322891235352 -1237.455078125 -24.16138648986816 L -1237.455078125 -239.4261169433594 L -1237.455078125 -376.8399047851563 C -1237.455078125 -382.7575073242188 -1235.167724609375 -388.3214416503906 -1231.014404296875 -392.5068054199219 C -1226.858642578125 -396.6944274902344 -1221.3330078125 -399.0007019042969 -1215.455444335938 -399.0007019042969 M -1071.587768554688 8.000139236450195 L -1207.910766601563 8.000139236450195 C -1213.17578125 8.000139236450195 -1218.283203125 6.9687180519104 -1223.091064453125 4.934717655181885 C -1227.734985351563 2.970928430557251 -1231.905639648438 0.1584020406007767 -1235.487670898438 -3.422703266143799 C -1239.068725585938 -7.004703044891357 -1241.881225585938 -11.17528247833252 -1243.844970703125 -15.81928253173828 C -1245.879028320313 -20.62801933288574 -1246.910400390625 -25.73459815979004 -1246.910400390625 -30.99959754943848 L -1246.910400390625 -225.0996551513672 C -1249.016357421875 -225.5987548828125 -1250.604736328125 -227.5399627685547 -1250.64453125 -229.8879089355469 L -1250.912719726563 -245.8853912353516 C -1250.954345703125 -248.3922882080078 -1249.216430664063 -250.4999694824219 -1246.910400390625 -250.9033355712891 L -1246.910400390625 -259.1039123535156 C -1249.008544921875 -259.6093444824219 -1250.588500976563 -261.54638671875 -1250.62744140625 -263.8880615234375 L -1250.912719726563 -280.885498046875 C -1250.954345703125 -283.3923950195313 -1249.216430664063 -285.5000610351563 -1246.910400390625 -285.9034423828125 L -1246.910400390625 -304.0266418457031 C -1249.072875976563 -304.2657470703125 -1250.754272460938 -306.0994262695313 -1250.754272460938 -308.3255920410156 L -1250.754272460938 -317.6756896972656 C -1250.754272460938 -319.90185546875 -1249.072875976563 -321.7347412109375 -1246.910400390625 -321.9736938476563 L -1246.910400390625 -369.9999084472656 C -1246.910400390625 -375.2649230957031 -1245.879028320313 -380.3723754882813 -1243.844970703125 -385.1811218261719 C -1241.881225585938 -389.8250732421875 -1239.068725585938 -393.9956970214844 -1235.487670898438 -397.5768127441406 C -1231.905639648438 -401.1588134765625 -1227.734985351563 -403.9703979492188 -1223.091064453125 -405.9351196289063 C -1218.283203125 -407.9691162109375 -1213.17578125 -408.9996032714844 -1207.910766601563 -408.9996032714844 L -1071.587768554688 -408.9996032714844 C -1066.32177734375 -408.9996032714844 -1061.21435546875 -407.9691162109375 -1056.406494140625 -405.9351196289063 C -1051.762573242188 -403.9703979492188 -1047.591064453125 -401.1588134765625 -1044.009887695313 -397.5768127441406 C -1040.427978515625 -393.9956970214844 -1037.616333007813 -389.8250732421875 -1035.651611328125 -385.1811218261719 C -1033.61767578125 -380.3723754882813 -1032.587158203125 -375.2649230957031 -1032.587158203125 -369.9999084472656 L -1032.587158203125 -271.0879516601563 C -1030.53759765625 -270.7668762207031 -1028.949584960938 -268.9452209472656 -1028.912475585938 -266.716796875 L -1028.609985351563 -248.7194976806641 C -1028.570190429688 -246.3296966552734 -1030.32861328125 -244.3428039550781 -1032.587158203125 -244.1558074951172 L -1032.587158203125 -30.99959754943848 C -1032.587158203125 -25.73459815979004 -1033.61767578125 -20.62801933288574 -1035.651611328125 -15.81928253173828 C -1037.616333007813 -11.17528247833252 -1040.427978515625 -7.004703044891357 -1044.009887695313 -3.422703266143799 C -1047.591918945313 0.1584020406007767 -1051.762573242188 2.970928430557251 -1056.406494140625 4.934717655181885 C -1061.21435546875 6.9687180519104 -1066.32177734375 8.000139236450195 -1071.587768554688 8.000139236450195 Z M -1215.455444335938 -398.0007019042969 C -1221.064208984375 -398.0007019042969 -1226.337280273438 -395.8001708984375 -1230.304565429688 -391.8023986816406 C -1234.270874023438 -387.8054809570313 -1236.455078125 -382.4919128417969 -1236.455078125 -376.8399047851563 L -1236.455078125 -239.4261169433594 L -1236.455078125 -24.16138648986816 C -1236.455078125 -18.5093879699707 -1234.270874023438 -13.19491386413574 -1230.304565429688 -9.197966575622559 C -1226.338256835938 -5.201966285705566 -1221.065185546875 -3.000597953796387 -1215.455444335938 -3.000597953796387 L -1064.120483398438 -3.000597953796387 C -1058.5107421875 -3.000597953796387 -1053.236694335938 -5.201966285705566 -1049.271362304688 -9.197966575622559 C -1045.305053710938 -13.19491386413574 -1043.120727539063 -18.5093879699707 -1043.120727539063 -24.16138648986816 L -1043.120727539063 -376.8399047851563 C -1043.120727539063 -382.4919128417969 -1045.305053710938 -387.8054809570313 -1049.271362304688 -391.8023986816406 C -1053.237670898438 -395.8001708984375 -1058.5107421875 -398.0007019042969 -1064.120483398438 -398.0007019042969 L -1086.178466796875 -398.0007019042969 L -1086.178466796875 -393.3287963867188 C -1086.178466796875 -388.9188232421875 -1089.766845703125 -385.32958984375 -1094.178588867188 -385.32958984375 L -1147.802368164063 -385.32958984375 L -1184.410888671875 -385.32958984375 C -1188.82177734375 -385.32958984375 -1192.410888671875 -388.9188232421875 -1192.410888671875 -393.3287963867188 L -1192.410888671875 -398.0007019042969 L -1215.455444335938 -398.0007019042969 Z" stroke="none" fill="#707070"/>
  </g>
</svg>
